<svg aria-hidden="true" style="width:0;height:0;position:absolute;overflow:hidden" xmlns="http://www.w3.org/2000/svg"><defs><symbol id="icon-light-theme" viewBox="0 0 32 32"><path fill="none" stroke="#5f6775" stroke-linejoin="round" stroke-linecap="round" stroke-width="2.286" d="M15.999 1.778v2.586m0 23.272v2.586M5.94 5.941l1.836 1.836m16.446 16.446 1.836 1.836M1.777 16h2.586m23.272 0h2.586M5.94 26.059l1.836-1.836M24.222 7.777l1.836-1.836M22.464 16a6.465 6.465 0 1 1-12.93 0 6.465 6.465 0 0 1 12.93 0z"/></symbol><symbol id="icon-home" viewBox="0 0 32 32"><path fill="none" stroke="#f4f4f4" style="stroke:var(--color2,#f4f4f4)" stroke-linejoin="round" stroke-linecap="round" d="M9.25 13.75 16 8.5l6.75 5.25V22a1.503 1.503 0 0 1-1.5 1.5h-10.5a1.503 1.503 0 0 1-1.5-1.5v-8.25z"/><path fill="none" stroke="#f4f4f4" style="stroke:var(--color2,#f4f4f4)" stroke-linejoin="round" stroke-linecap="round" d="M13.75 23.5V16h4.5v7.5"/></symbol><symbol id="icon-favorite" viewBox="0 0 32 32"><path fill="none" stroke="#f4f4f4" style="stroke:var(--color2,#f4f4f4)" stroke-linejoin="round" stroke-linecap="round" d="M22.631 10.457a4.111 4.111 0 0 0-4.496-.895 4.09 4.09 0 0 0-1.338.895l-.795.795-.795-.795a4.125 4.125 0 0 0-5.836 0 4.125 4.125 0 0 0 0 5.835l6.63 6.63 6.63-6.63a4.111 4.111 0 0 0 .895-4.496 4.116 4.116 0 0 0-.895-1.338v0z"/></symbol><symbol id="icon-read" viewBox="0 0 32 32"><path fill="none" stroke="#f4f4f4" style="stroke:var(--color2,#f4f4f4)" stroke-linejoin="round" stroke-linecap="round" d="M8.5 9.25H13a3.004 3.004 0 0 1 3 3v10.5a2.25 2.25 0 0 0-2.25-2.25H8.5V9.25zM23.5 9.25H19a3.004 3.004 0 0 0-3 3v10.5a2.25 2.25 0 0 1 2.25-2.25h5.25V9.25z"/></symbol><symbol id="icon-search" viewBox="0 0 32 32"><path d="M13.464 23.726c2.277 0 4.489-.763 6.283-2.165l5.64 5.64 1.814-1.814-5.64-5.64a10.202 10.202 0 0 0 2.167-6.284c0-5.659-4.604-10.263-10.264-10.263S3.2 7.804 3.2 13.463s4.604 10.263 10.264 10.263zm0-17.96c4.245 0 7.698 3.452 7.698 7.697s-3.452 7.697-7.698 7.697c-4.245 0-7.698-3.452-7.698-7.697s3.452-7.697 7.698-7.697z"/></symbol><symbol id="icon-menu-open" viewBox="0 0 32 32"><path stroke-linejoin="round" stroke-linecap="round" stroke-width="2.667" d="M4 16h24M4 8h24M4 24h24"/></symbol><symbol id="icon-dark-theme" viewBox="0 0 32 32"><path fill="none" stroke="#5f6775" style="stroke:var(--color1,#5f6775)" stroke-linejoin="round" stroke-linecap="round" stroke-width="2.286" d="M28 17.053a11.994 11.994 0 0 1-7.873 10.182A12.003 12.003 0 0 1 4.338 18.56 12.002 12.002 0 0 1 14.946 3.999 9.335 9.335 0 0 0 28 17.053v0z"/></symbol><symbol id="icon-menu-close" viewBox="0 0 32 32"><path stroke-linejoin="round" stroke-linecap="round" stroke-width="2.667" d="M24 8 8 24M8 8l16 16"/></symbol></defs></svg>