<svg aria-hidden="true" style="width:0;height:0;position:absolute;overflow:hidden" xmlns="http://www.w3.org/2000/svg"><defs><symbol id="icon-location" viewBox="0 0 270 270"><path fill="#fff" style="fill:var(--color1,#fff)" d="M135 16.875a92.921 92.921 0 0 0-92.812 92.812 91.88 91.88 0 0 0 18.697 55.688s2.531 3.333 2.945 3.815L135 253.125l71.203-83.979c.372-.447 2.911-3.771 2.911-3.771l.009-.026a91.85 91.85 0 0 0 18.689-55.662A92.925 92.925 0 0 0 135 16.875zm0 126.563a33.744 33.744 0 0 1-31.18-20.835 33.756 33.756 0 0 1 7.316-36.781c4.72-4.72 10.734-7.934 17.281-9.237s13.333-.634 19.5 1.921a33.755 33.755 0 0 1 20.834 31.181 33.793 33.793 0 0 1-33.75 33.75z"/></symbol><symbol id="icon-cross" viewBox="0 0 270 270"><path fill="#fff" style="fill:var(--color1,#fff)" d="M213.574 72.246 150.82 135l62.754 62.754-15.82 15.82L135 150.82l-62.754 62.754-15.82-15.82L119.18 135 56.426 72.246l15.82-15.82L135 119.18l62.754-62.754z"/></symbol><symbol id="icon-arrow_down" viewBox="0 0 270 270"><path d="m83.32 96.504 51.68 51.68 51.68-51.68 15.82 15.82-67.5 67.5-67.5-67.5z"/></symbol><symbol id="icon-umbrella" viewBox="0 0 270 270"><path d="M227.813 118.125h42.188c0-9.32-9.444-16.875-21.094-16.875s-21.094 7.555-21.094 16.875zm0 0c0-9.32-9.444-16.875-21.094-16.875s-21.094 7.555-21.094 16.875c0-9.32-9.444-16.875-21.094-16.875s-21.094 7.555-21.094 16.875V236.25a16.833 16.833 0 0 1-16.875 16.875c-9.385 0-16.875-7.559-16.875-16.884v-12.608c0-2.452 1.889-4.258 4.219-4.258 2.262 0 4.219 1.907 4.219 4.258v12.694c0 4.617 3.745 8.36 8.438 8.36 4.66 0 8.438-3.805 8.438-8.36V118.124c0-9.32-9.444-16.875-21.094-16.875s-21.094 7.555-21.094 16.875c0-9.32-9.444-16.875-21.094-16.875s-21.094 7.555-21.094 16.875c0-9.32-9.444-16.875-21.094-16.875s-21.094 7.555-21.094 16.875c0-45.688 56.287-82.895 126.563-84.332V21.087c0-2.39 1.889-4.213 4.219-4.213 2.262 0 4.219 1.887 4.219 4.213v12.705c70.276 1.437 126.563 38.643 126.563 84.332h-42.188z"/></symbol><symbol id="icon-carbon_location" viewBox="0 0 32 32"><path fill="#fff" style="fill:var(--color1,#fff)" d="M16 2.001C9.928 2.008 5.008 6.928 5 12.999V13.017c0 2.486.833 4.777 2.236 6.61l-.019-.026s.3.395.348.45L16 30.001l8.439-9.953c.044-.053.345-.447.345-.447l.001-.004a10.811 10.811 0 0 0 2.216-6.583V13v.001c-.007-6.072-4.928-10.993-11-11H16zM16 17a4 4 0 0 1 0-8 4 4 0 0 1 0 8z"/></symbol></defs></svg>