<svg aria-hidden="true" style="position: absolute; width: 0; height: 0; overflow: hidden;" version="1.1" xmlns="http://www.w3.org/2000/svg" xmlns:xlink="http://www.w3.org/1999/xlink">
<defs>
<symbol id="icon-location" viewBox="0 0 270 270">
<path fill="#fff" style="fill: var(--color1, #fff)" d="M135 16.875c-24.607 0.029-48.197 9.817-65.596 27.216s-27.187 40.99-27.216 65.596c-0.030 20.108 6.539 39.671 18.697 55.688 0 0 2.531 3.333 2.945 3.815l71.17 83.935 71.203-83.979c0.372-0.447 2.911-3.771 2.911-3.771l0.009-0.026c12.152-16.009 18.717-35.563 18.689-55.662-0.028-24.606-9.816-48.197-27.216-65.596s-40.99-27.187-65.596-27.216zM135 143.438c-6.675 0-13.2-1.979-18.75-5.688s-9.876-8.98-12.43-15.147c-2.554-6.167-3.223-12.953-1.921-19.5s4.517-12.561 9.237-17.281c4.72-4.72 10.734-7.934 17.281-9.237s13.333-0.634 19.5 1.921c6.167 2.554 11.438 6.88 15.146 12.431s5.688 12.075 5.688 18.75c-0.011 8.948-3.57 17.525-9.897 23.853s-14.905 9.886-23.853 9.897z"></path>
</symbol>
<symbol id="icon-cross" viewBox="0 0 270 270">
<path fill="#fff" style="fill: var(--color1, #fff)" d="M213.574 72.246l-62.754 62.754 62.754 62.754-15.82 15.82-62.754-62.754-62.754 62.754-15.82-15.82 62.754-62.754-62.754-62.754 15.82-15.82 62.754 62.754 62.754-62.754z"></path>
</symbol>
<symbol id="icon-arrow_down" viewBox="0 0 270 270">
<path d="M83.32 96.504l51.68 51.68 51.68-51.68 15.82 15.82-67.5 67.5-67.5-67.5z"></path>
</symbol>
<symbol id="icon-umbrella" viewBox="0 0 270 270">
<path d="M227.813 118.125h42.188c0-9.32-9.444-16.875-21.094-16.875s-21.094 7.555-21.094 16.875v0zM227.813 118.125c0-9.32-9.444-16.875-21.094-16.875s-21.094 7.555-21.094 16.875c0-9.32-9.444-16.875-21.094-16.875s-21.094 7.555-21.094 16.875v0 118.125c0 9.385-7.555 16.875-16.875 16.875-9.385 0-16.875-7.559-16.875-16.884v-12.608c0-2.452 1.889-4.258 4.219-4.258 2.262 0 4.219 1.907 4.219 4.258v12.694c0 4.617 3.745 8.36 8.438 8.36 4.66 0 8.438-3.805 8.438-8.36v-118.203c0-9.32-9.444-16.875-21.094-16.875s-21.094 7.555-21.094 16.875c0-9.32-9.444-16.875-21.094-16.875s-21.094 7.555-21.094 16.875c0-9.32-9.444-16.875-21.094-16.875s-21.094 7.555-21.094 16.875c0-45.688 56.287-82.895 126.563-84.332v-12.705c0-2.39 1.889-4.213 4.219-4.213 2.262 0 4.219 1.887 4.219 4.213v12.705c70.276 1.437 126.563 38.643 126.563 84.332h-42.188z"></path>
</symbol>
<symbol id="icon-carbon_location" viewBox="0 0 32 32">
<path fill="#fff" style="fill: var(--color1, #fff)" d="M16 2.001c-6.072 0.007-10.992 4.927-11 10.998v0.001c0 0.005 0 0.011 0 0.017 0 2.486 0.833 4.777 2.236 6.61l-0.019-0.026s0.3 0.395 0.348 0.45l8.435 9.95 8.439-9.953c0.044-0.053 0.345-0.447 0.345-0.447l0.001-0.004c1.383-1.806 2.216-4.098 2.216-6.583 0-0.005 0-0.009 0-0.014v0.001c-0.007-6.072-4.928-10.993-11-11h-0.001zM16 17c-2.209 0-4-1.791-4-4s1.791-4 4-4v0c2.209 0 4 1.791 4 4s-1.791 4-4 4v0z"></path>
</symbol>
</defs>
</svg>